<svg xmlns="http://www.w3.org/2000/svg" xmlns:xlink="http://www.w3.org/1999/xlink" width="38" height="28.5" viewBox="0 0 38 28.5">
  <defs>
    <linearGradient id="linear-gradient" x1="-0.093" y1="1.501" x2="-0.043" y2="1.47" gradientUnits="objectBoundingBox">
      <stop offset="0" stop-color="#fff" stop-opacity="0.2"/>
      <stop offset="1" stop-color="#fff" stop-opacity="0"/>
    </linearGradient>
  </defs>
  <g id="scan" transform="translate(0 -64)">
    <g id="Group_52" data-name="Group 52" transform="translate(0 64)">
      <path id="Path_453" data-name="Path 453" d="M429.833,64h-2.375a.792.792,0,0,0,0,1.583h2.375a1.585,1.585,0,0,1,1.583,1.583v2.375a.792.792,0,1,0,1.583,0V67.167A3.17,3.17,0,0,0,429.833,64Z" transform="translate(-394.999 -64)" fill="#2f3c7e"/>
      <path id="Path_454" data-name="Path 454" d="M.792,70.333a.791.791,0,0,0,.792-.792V67.167a1.585,1.585,0,0,1,1.583-1.583H5.542a.792.792,0,1,0,0-1.583H3.167A3.17,3.17,0,0,0,0,67.167v2.375A.791.791,0,0,0,.792,70.333Z" transform="translate(0 -64)" fill="#2f3c7e"/>
      <path id="Path_455" data-name="Path 455" d="M432.208,362.667a.791.791,0,0,0-.792.792v2.375a1.585,1.585,0,0,1-1.583,1.583h-2.375a.792.792,0,1,0,0,1.583h2.375A3.17,3.17,0,0,0,433,365.834v-2.375A.791.791,0,0,0,432.208,362.667Z" transform="translate(-394.999 -340.5)" fill="#2f3c7e"/>
      <path id="Path_456" data-name="Path 456" d="M5.542,367.417H3.167a1.585,1.585,0,0,1-1.583-1.583v-2.375a.792.792,0,0,0-1.583,0v2.375A3.17,3.17,0,0,0,3.167,369H5.542a.792.792,0,1,0,0-1.583Z" transform="translate(0 -340.5)" fill="#2f3c7e"/>
      <path id="Path_457" data-name="Path 457" d="M64.792,128a.791.791,0,0,0-.792.792v17.417a.792.792,0,0,0,1.583,0V128.792A.791.791,0,0,0,64.792,128Z" transform="translate(-59.25 -123.25)" fill="#2f3c7e"/>
      <path id="Path_458" data-name="Path 458" d="M278.125,128a.791.791,0,0,0-.792.792v17.417a.792.792,0,1,0,1.583,0V128.792A.791.791,0,0,0,278.125,128Z" transform="translate(-256.75 -123.25)" fill="#2f3c7e"/>
      <path id="Path_459" data-name="Path 459" d="M427.458,128a.791.791,0,0,0-.792.792v17.417a.792.792,0,1,0,1.583,0V128.792A.791.791,0,0,0,427.458,128Z" transform="translate(-394.999 -123.25)" fill="#2f3c7e"/>
      <path id="Path_460" data-name="Path 460" d="M128.792,128a.791.791,0,0,0-.792.792v12.667a.792.792,0,1,0,1.583,0V128.792A.791.791,0,0,0,128.792,128Z" transform="translate(-118.5 -123.25)" fill="#2f3c7e"/>
      <path id="Path_461" data-name="Path 461" d="M171.458,128a.791.791,0,0,0-.792.792v12.667a.792.792,0,1,0,1.583,0V128.792A.791.791,0,0,0,171.458,128Z" transform="translate(-157.999 -123.25)" fill="#2f3c7e"/>
      <path id="Path_462" data-name="Path 462" d="M214.125,128a.791.791,0,0,0-.792.792v12.667a.792.792,0,1,0,1.583,0V128.792A.791.791,0,0,0,214.125,128Z" transform="translate(-197.5 -123.25)" fill="#2f3c7e"/>
      <path id="Path_463" data-name="Path 463" d="M320.792,128a.791.791,0,0,0-.792.792v12.667a.792.792,0,1,0,1.583,0V128.792A.791.791,0,0,0,320.792,128Z" transform="translate(-296.25 -123.25)" fill="#2f3c7e"/>
      <path id="Path_464" data-name="Path 464" d="M384.792,128a.791.791,0,0,0-.792.792v12.667a.792.792,0,1,0,1.583,0V128.792A.791.791,0,0,0,384.792,128Z" transform="translate(-355.5 -123.25)" fill="#2f3c7e"/>
      <path id="Path_465" data-name="Path 465" d="M384.792,341.333a.791.791,0,0,0-.792.792v1.583a.792.792,0,0,0,1.583,0v-1.583A.791.791,0,0,0,384.792,341.333Z" transform="translate(-355.5 -320.75)" fill="#2f3c7e"/>
      <path id="Path_466" data-name="Path 466" d="M320.792,341.333a.791.791,0,0,0-.792.792v1.583a.792.792,0,0,0,1.583,0v-1.583A.791.791,0,0,0,320.792,341.333Z" transform="translate(-296.25 -320.75)" fill="#2f3c7e"/>
      <path id="Path_467" data-name="Path 467" d="M214.125,341.333a.791.791,0,0,0-.792.792v1.583a.792.792,0,0,0,1.583,0v-1.583A.791.791,0,0,0,214.125,341.333Z" transform="translate(-197.5 -320.75)" fill="#2f3c7e"/>
      <path id="Path_468" data-name="Path 468" d="M171.458,341.333a.791.791,0,0,0-.792.792v1.583a.792.792,0,0,0,1.583,0v-1.583A.791.791,0,0,0,171.458,341.333Z" transform="translate(-157.999 -320.75)" fill="#2f3c7e"/>
      <path id="Path_469" data-name="Path 469" d="M128.792,341.333a.791.791,0,0,0-.792.792v1.583a.792.792,0,0,0,1.583,0v-1.583A.791.791,0,0,0,128.792,341.333Z" transform="translate(-118.5 -320.75)" fill="#2f3c7e"/>
    </g>
    <path id="Path_470" data-name="Path 470" d="M37.208,234.667H.792a.792.792,0,1,0,0,1.583H37.208a.792.792,0,1,0,0-1.583Z" transform="translate(0 -158)" fill="#e23c52"/>
    <path id="Path_471" data-name="Path 471" d="M10.292,84.583a.791.791,0,0,0-.792.792v1.583a.792.792,0,1,0,1.583,0V85.375A.791.791,0,0,0,10.292,84.583Zm3.167,0a.791.791,0,0,0-.792.792v1.583a.792.792,0,1,0,1.583,0V85.375A.791.791,0,0,0,13.458,84.583Zm3.167,0a.791.791,0,0,0-.792.792v1.583a.792.792,0,1,0,1.583,0V85.375A.791.791,0,0,0,16.625,84.583ZM5.542,90.917H3.167a1.585,1.585,0,0,1-1.583-1.583V86.958a.792.792,0,0,0-1.583,0v2.375A3.17,3.17,0,0,0,3.167,92.5H5.542a.792.792,0,1,0,0-1.583ZM.792,70.333a.791.791,0,0,0,.792-.792V67.167a1.585,1.585,0,0,1,1.583-1.583H5.542a.792.792,0,1,0,0-1.583H3.167A3.17,3.17,0,0,0,0,67.167v2.375A.791.791,0,0,0,.792,70.333Zm36.417,6.333H33.25V69.542a.792.792,0,1,0-1.583,0v7.125H30.083V69.542a.792.792,0,1,0-1.583,0v7.125H25.333V69.542a.792.792,0,1,0-1.583,0v7.125H22.167V69.542a.792.792,0,1,0-1.583,0v7.125H17.416V69.542a.792.792,0,1,0-1.583,0v7.125H14.25V69.542a.792.792,0,1,0-1.583,0v7.125H11.083V69.542a.792.792,0,1,0-1.583,0v7.125H6.333V69.542a.792.792,0,1,0-1.583,0v7.125H.792a.792.792,0,1,0,0,1.583H4.75v8.708a.792.792,0,1,0,1.583,0V78.25H9.5v3.958a.792.792,0,0,0,1.583,0V78.25h1.583v3.958a.792.792,0,0,0,1.583,0V78.25h1.583v3.958a.792.792,0,0,0,1.583,0V78.25h3.167v8.708a.792.792,0,1,0,1.583,0V78.25H23.75v3.958a.792.792,0,0,0,1.583,0V78.25H28.5v3.958a.792.792,0,0,0,1.583,0V78.25h1.583v8.708a.792.792,0,1,0,1.583,0V78.25h3.958a.792.792,0,1,0,0-1.583ZM34.833,64H32.458a.792.792,0,0,0,0,1.583h2.375a1.585,1.585,0,0,1,1.583,1.583v2.375a.792.792,0,1,0,1.583,0V67.167A3.17,3.17,0,0,0,34.833,64ZM24.542,84.583a.791.791,0,0,0-.792.792v1.583a.792.792,0,1,0,1.583,0V85.375A.791.791,0,0,0,24.542,84.583Zm12.667,1.583a.791.791,0,0,0-.792.792v2.375a1.585,1.585,0,0,1-1.583,1.583H32.458a.792.792,0,1,0,0,1.583h2.375A3.17,3.17,0,0,0,38,89.333V86.958A.791.791,0,0,0,37.208,86.167Zm-7.917-1.583a.791.791,0,0,0-.792.792v1.583a.792.792,0,1,0,1.583,0V85.375A.791.791,0,0,0,29.292,84.583Z" transform="translate(0)" fill="url(#linear-gradient)"/>
  </g>
</svg>
