<svg xmlns="http://www.w3.org/2000/svg" width="36" height="36.076" viewBox="0 0 36 36.076">
  <g id="speaker" transform="translate(-0.024 0)">
    <path id="Path_449" data-name="Path 449" d="M26.08,27.259,18.6,25.183v-1.8l1.575.473.832.024a3.4,3.4,0,0,0,3.4-3.4,2.25,2.25,0,0,1,.236-1l.7-1.408a1.452,1.452,0,0,0,1.092-2.321l-.217-.289a6.212,6.212,0,0,1-1.235-3.706,3.532,3.532,0,0,0-.44-1.712l.192-.192a6.749,6.749,0,0,0,1.99-4.8A6.839,6.839,0,0,0,25.375.973L24.642,0l-.374.094a38.617,38.617,0,0,1-9.358,1.144h-.319A9.34,9.34,0,0,0,6.451,15.159l2.027,3.013a11.7,11.7,0,0,1,1.4,2.838,11.707,11.707,0,0,1,.6,3.709v.465L3,27.259A4.077,4.077,0,0,0,.024,31.176v4.9H29.056v-4.9a4.077,4.077,0,0,0-2.976-3.917Zm-7.955-1,.42.117-.86,3.44L15.508,28ZM25.3,16.161l.216.288a.29.29,0,0,1-.232.465h-.649l-1.024,2.048a3.408,3.408,0,0,0-.359,1.521,2.24,2.24,0,0,1-2.238,2.238h-.58L14.707,21l-.333,1.113,3.07.921v2.277l-2.9,1.935-2.9-1.935v-.6a12.948,12.948,0,0,0-.115-1.642l.214-.214A7.541,7.541,0,0,0,13.959,17.5v-.581H12.8a1.161,1.161,0,1,1,0-2.323h1.161V13.258a3.891,3.891,0,0,1,3.892-3.892h3.587a2.393,2.393,0,0,1,2.393,2.393,7.381,7.381,0,0,0,1.467,4.4ZM10.956,26.255,13.571,28,11.4,29.812l-.86-3.44ZM9.441,17.524l-2-2.971A8.181,8.181,0,0,1,14.592,2.4h.319a39.758,39.758,0,0,0,9.266-1.087l.269.359a5.671,5.671,0,0,1,1.126,3.38,5.6,5.6,0,0,1-1.65,3.983l-.1.1A3.526,3.526,0,0,0,21.437,8.2H17.851A5.053,5.053,0,0,0,12.8,13.258v.173a2.323,2.323,0,0,0-.026,4.645,6.369,6.369,0,0,1-1.5,3.581q-.125-.512-.292-1.014a12.872,12.872,0,0,0-1.534-3.118ZM27.895,34.914H1.185V31.176a2.913,2.913,0,0,1,2.126-2.8l6.1-1.7,1.3,5.205L14.54,28.7l3.822,3.186,1.3-5.205,6.1,1.7a2.911,2.911,0,0,1,2.126,2.8Zm0,0" transform="translate(0)" fill="#2f3c7e"/>
    <path id="Path_450" data-name="Path 450" d="M452.724,169.855l-.821.821a6.967,6.967,0,0,1,0,9.854l.821.821a8.127,8.127,0,0,0,0-11.5Zm0,0" transform="translate(-419.081 -157.527)" fill="#2f3c7e"/>
    <path id="Path_451" data-name="Path 451" d="M430.1,192.48l-.821.821a4.646,4.646,0,0,1,0,6.569l.821.821a5.807,5.807,0,0,0,0-8.212Zm0,0" transform="translate(-398.102 -178.51)" fill="#2f3c7e"/>
    <path id="Path_452" data-name="Path 452" d="M407.478,215.1l-.821.821a2.325,2.325,0,0,1,0,3.285l.821.821a3.485,3.485,0,0,0,0-4.927Zm0,0" transform="translate(-377.119 -199.493)" fill="#2f3c7e"/>
  </g>
</svg>
